<?xml version="1.0" encoding="iso-8859-1"?>
<!-- Uploaded to: SVG Repo, www.svgrepo.com, Generator: SVG Repo Mixer Tools -->
<svg fill="#6800f0" height="64px" width="64px" version="1.1" id="Layer_1" xmlns="http://www.w3.org/2000/svg" xmlns:xlink="http://www.w3.org/1999/xlink" 
	 viewBox="0 0 512 512" xml:space="preserve">
<g>
	<g>
		<path d="M346.657,243.37c-18.11-18.109-47.572-18.107-65.68,0l-24.976,24.977l-24.979-24.976
			c-8.773-8.773-20.435-13.604-32.841-13.604c-12.404,0-24.067,4.831-32.839,13.603c-18.108,18.108-18.108,47.572,0,65.68
			L256,399.707l90.657-90.656C364.765,290.942,364.765,261.479,346.657,243.37z"/>
	</g>
</g>
<g>
	<g>
		<path d="M256,1.468L0,254.586h39.984v255.946h432.033V254.586H512L256,1.468z M368.039,330.432L256.001,442.469L143.962,330.431
			c-29.899-29.896-29.899-78.544-0.001-108.442c14.482-14.483,33.74-22.459,54.22-22.459c20.482,0,39.738,7.977,54.22,22.459
			l3.598,3.597l3.597-3.596c29.896-29.895,78.544-29.897,108.442,0C397.935,251.887,397.936,300.535,368.039,330.432z"/>
	</g>
</g>
</svg>